<svg width="44" height="44" viewBox="0 0 44 44" fill="none" xmlns="http://www.w3.org/2000/svg">
<path d="M12.8334 40.3334H7.33335C6.36089 40.3334 5.42826 39.9471 4.74063 39.2595C4.053 38.5718 3.66669 37.6392 3.66669 36.6667V23.8334C3.66669 22.861 4.053 21.9283 4.74063 21.2407C5.42826 20.5531 6.36089 20.1667 7.33335 20.1667H12.8334M25.6667 16.5001V9.16675C25.6667 7.70806 25.0872 6.30911 24.0558 5.27766C23.0243 4.24621 21.6254 3.66675 20.1667 3.66675L12.8334 20.1667V40.3334H33.5134C34.3976 40.3434 35.2557 40.0335 35.9295 39.4608C36.6033 38.888 37.0474 38.0911 37.18 37.2167L39.71 20.7167C39.7898 20.1912 39.7543 19.6547 39.6061 19.1442C39.4579 18.6338 39.2005 18.1616 38.8518 17.7605C38.503 17.3594 38.0712 17.039 37.5862 16.8213C37.1013 16.6037 36.5749 16.4941 36.0434 16.5001H25.6667Z" stroke="white" stroke-width="2.2" stroke-linecap="round" stroke-linejoin="round"/>
</svg>
