<svg width="1920" height="83" viewBox="0 0 1920 83" fill="none" xmlns="http://www.w3.org/2000/svg">
<path d="M-2.79751e-06 55.9998L99.3872 29.4969C112.893 25.8953 127.107 25.8953 140.613 29.4969L219.387 50.5032C232.893 54.1047 247.107 54.1047 260.613 50.5032L339.387 29.4969C352.893 25.8953 367.107 25.8953 380.613 29.4969L459.387 50.5032C472.893 54.1047 487.107 54.1047 500.613 50.5032L579.387 29.4969C592.893 25.8953 607.107 25.8953 620.613 29.4969L699.387 50.5032C712.893 54.1047 727.107 54.1047 740.613 50.5032L819.387 29.4969C832.893 25.8953 847.107 25.8953 860.613 29.4969L939.387 50.5032C952.893 54.1047 967.107 54.1047 980.613 50.5032L1059.39 29.4969C1072.89 25.8953 1087.11 25.8953 1100.61 29.4969L1179.39 50.5032C1192.89 54.1048 1207.11 54.1048 1220.61 50.5032L1299.39 29.4969C1312.89 25.8953 1327.11 25.8953 1340.61 29.4969L1419.39 50.5032C1432.89 54.1048 1447.11 54.1048 1460.61 50.5032L1539.39 29.4969C1552.89 25.8953 1567.11 25.8953 1580.61 29.4969L1659.39 50.5032C1672.89 54.1048 1687.11 54.1048 1700.61 50.5032L1779.39 29.4969C1792.89 25.8953 1807.11 25.8953 1820.61 29.4969L1920 56" stroke="#2DBCBF" stroke-width="52" stroke-linecap="round"/>
</svg>
