<svg width="1143" height="21" viewBox="0 0 1143 21" fill="none" xmlns="http://www.w3.org/2000/svg">
<path opacity="0.08" d="M2 19.4991L65.6422 2.96084C70.5902 1.67503 75.7848 1.67503 80.7328 2.96084L136.83 17.5384C141.778 18.8242 146.972 18.8242 151.92 17.5384L208.017 2.96084C212.965 1.67503 218.16 1.67503 223.108 2.96084L279.205 17.5384C284.153 18.8242 289.347 18.8242 294.295 17.5384L350.392 2.96084C355.34 1.67503 360.535 1.67503 365.483 2.96084L421.58 17.5384C426.528 18.8242 431.722 18.8242 436.67 17.5384L492.767 2.96085C497.715 1.67503 502.91 1.67503 507.858 2.96084L563.955 17.5384C568.903 18.8242 574.097 18.8242 579.045 17.5384L635.142 2.96085C640.09 1.67503 645.285 1.67503 650.233 2.96085L706.33 17.5384C711.278 18.8242 716.472 18.8242 721.42 17.5384L777.517 2.96085C782.465 1.67503 787.66 1.67503 792.608 2.96085L848.705 17.5384C853.653 18.8242 858.847 18.8242 863.795 17.5384L919.892 2.96085C924.84 1.67503 930.035 1.67503 934.983 2.96085L991.08 17.5384C996.028 18.8242 1001.22 18.8242 1006.17 17.5384L1062.27 2.96086C1067.22 1.67504 1072.41 1.67503 1077.36 2.96085L1141 19.4992" stroke="#50FFFF" stroke-width="3" stroke-linecap="round"/>
</svg>
